# xmcd
#
# Track frame offsets: 
#        150
#        22722
#        34620
#        53972
#        70320
#        93647
#        109760
#        133442
#        149577
#        160580
#        178132
#        194062
#        208732
#        224275
#
# Disc length: 3125 seconds
#
# Revision: 3
# Processed by: cddbd v1.5.1PL0 Copyright (c) Steve Scherf et al.
# Submitted via: ExactAudioCopy v0.95a5
#
DISCID=d90c330e
DTITLE=B.B. KING - GOLD
DYEAR=1900
DGENRE=Blues
TTITLE0=Every Day
TTITLE1=Paying the cost to be the boss
TTITLE2=Sweet sixteen
TTITLE3=Outside Help
TTITLE4=How blue you can get
TTITLE5=It's my own fault baby
TTITLE6=You've done lost you're good thing now
TTITLE7=The letter
TTITLE8=Catfish blues
TTITLE9=Evil child
TTITLE10=Long nights
TTITLE11=Mr Pawnbroker
TTITLE12=Walkin and  cryin
TTITLE13=I'm willing to run all the way
EXTD=ID3G:   0
EXTT0=
EXTT1=
EXTT2=
EXTT3=
EXTT4=
EXTT5=
EXTT6=
EXTT7=
EXTT8=
EXTT9=
EXTT10=
EXTT11=
EXTT12=
EXTT13=
PLAYORDER=
